<?xml version="1.0" encoding="utf-8"?>
<!-- Generator: Adobe Illustrator 23.0.6, SVG Export Plug-In . SVG Version: 6.00 Build 0)  -->
<svg version="1.1" id="Capa_1" xmlns="http://www.w3.org/2000/svg" xmlns:xlink="http://www.w3.org/1999/xlink" x="0px" y="0px"
	 viewBox="0 0 42.87 47.21" style="enable-background:new 0 0 42.87 47.21;" xml:space="preserve">
<g id="Icons_Share_Copy" transform="translate(-0.935 -0.337)">
	<path id="Icons_Share" d="M34.88,31.31c1.98-0.03,3.89,0.73,5.29,2.13c2.91,2.89,2.93,7.6,0.04,10.51
		c-0.01,0.01-0.03,0.03-0.04,0.04c-2.93,2.91-7.66,2.91-10.59,0c-1.43-1.37-2.23-3.27-2.2-5.25c0-0.23,0.02-0.46,0.05-0.69
		c0.03-0.2,0.04-0.4,0.05-0.6L14.5,29.72c-1.31,1.03-2.93,1.58-4.59,1.58c-1.99,0.03-3.9-0.76-5.29-2.18
		c-2.9-2.86-2.93-7.53-0.08-10.43c0.03-0.03,0.05-0.05,0.08-0.08c1.39-1.42,3.3-2.21,5.29-2.18c1.66-0.05,3.28,0.48,4.59,1.49
		l12.98-7.73c0-0.2-0.02-0.4-0.05-0.6c-0.03-0.2-0.04-0.4-0.05-0.6c-0.03-1.98,0.77-3.88,2.2-5.25c1.39-1.42,3.3-2.21,5.29-2.18
		c1.98-0.03,3.89,0.73,5.29,2.13c1.45,1.38,2.25,3.3,2.2,5.3c0.03,1.98-0.77,3.88-2.2,5.25c-1.39,1.42-3.3,2.21-5.29,2.18
		c-1.64,0.03-3.24-0.53-4.49-1.58l-13.08,7.73c0.08,0.42,0.11,0.86,0.1,1.29c0.01,0.4-0.02,0.8-0.1,1.19l13.08,7.73
		C31.66,31.77,33.26,31.25,34.88,31.31L34.88,31.31z"/>
</g>
</svg>
